<?xml version="1.0" encoding="UTF-8" standalone="no"?>
<!-- Created with Inkscape (http://www.inkscape.org/) -->

<svg
   xmlns:ns1="http://www.iki.fi/pav/software/textext/"
   xmlns:dc="http://purl.org/dc/elements/1.1/"
   xmlns:cc="http://creativecommons.org/ns#"
   xmlns:rdf="http://www.w3.org/1999/02/22-rdf-syntax-ns#"
   xmlns:svg="http://www.w3.org/2000/svg"
   xmlns="http://www.w3.org/2000/svg"
   xmlns:sodipodi="http://sodipodi.sourceforge.net/DTD/sodipodi-0.dtd"
   xmlns:inkscape="http://www.inkscape.org/namespaces/inkscape"
   width="210mm"
   height="297mm"
   viewBox="0 0 210 297"
   version="1.1"
   id="svg8"
   inkscape:version="0.92.4 5da689c313, 2019-01-14"
   sodipodi:docname="drawing.svg">
  <defs
     id="defs2">
    <inkscape:path-effect
       effect="spiro"
       id="path-effect163"
       is_visible="true" />
    <inkscape:path-effect
       effect="simplify"
       id="path-effect161"
       is_visible="true"
       steps="1"
       threshold="0.014878"
       smooth_angles="360"
       helper_size="0"
       simplify_individual_paths="false"
       simplify_just_coalesce="false"
       simplifyindividualpaths="false"
       simplifyJustCoalesce="false" />
    <inkscape:path-effect
       effect="spiro"
       id="path-effect157"
       is_visible="true" />
  </defs>
  <sodipodi:namedview
     id="base"
     pagecolor="#ffffff"
     bordercolor="#666666"
     borderopacity="1.0"
     inkscape:pageopacity="0.0"
     inkscape:pageshadow="2"
     inkscape:zoom="1.6365741"
     inkscape:cx="306.44979"
     inkscape:cy="714.28571"
     inkscape:document-units="mm"
     inkscape:current-layer="layer1"
     showgrid="false"
     inkscape:window-width="1364"
     inkscape:window-height="730"
     inkscape:window-x="0"
     inkscape:window-y="18"
     inkscape:window-maximized="0" />
  <metadata
     id="metadata5">
    <rdf:RDF>
      <cc:Work
         rdf:about="">
        <dc:format>image/svg+xml</dc:format>
        <dc:type
           rdf:resource="http://purl.org/dc/dcmitype/StillImage" />
        <dc:title></dc:title>
      </cc:Work>
    </rdf:RDF>
  </metadata>
  <g
     inkscape:label="Layer 1"
     inkscape:groupmode="layer"
     id="layer1">
    <ellipse
       style="fill:#ffffff;stroke:#000000;stroke-width:0.18156131;stroke-miterlimit:4;stroke-dasharray:none;stroke-opacity:1"
       id="path12"
       cx="79.883957"
       cy="101.62374"
       rx="33.770664"
       ry="22.441111" />
    <g
       id="g95"
       ns1:jacobian_sqrt="0.352778"
       ns1:alignment="middle center"
       ns1:scale="1.0"
       ns1:preamble="/usr/share/inkscape/extensions/textext/default_packages.tex"
       ns1:text="$\\bm{\\lambda}_{init}$"
       ns1:pdfconverter="pdf2svg"
       ns1:texconverter="pdflatex"
       ns1:version="0.11.0"
       transform="matrix(0.352778,0,0,0.352778,-1.155305,62.97122)">
      <g
         id="g93">
        <g
           id="g81"
           style="fill:#000000;fill-opacity:1">
          <path
             id="path79"
             transform="translate(148.712,134.765)"
             d="m 3.578125,-6.359375 c -0.125,-0.28125 -0.25,-0.5625 -1.46875,-0.5625 -0.234375,0 -0.40625,0 -0.40625,0.1875 0,0.15625 0.140625,0.171875 0.15625,0.171875 0.15625,0.015625 0.265625,0.03125 0.421875,0.265625 0.125,0.203125 1.15625,2.5625 1.390625,3.09375 l -2.890625,2.3125 c -0.109375,0.09375 -0.3125,0.265625 -0.3125,0.53125 0,0.28125 0.234375,0.484375 0.484375,0.484375 0.265625,0 0.46875,-0.21875 0.75,-0.53125 C 1.71875,-0.421875 2.21875,-0.9375 2.25,-0.984375 c 0.375,-0.375 1.265625,-1.34375 1.640625,-1.71875 l 0.953125,2.15625 C 4.875,-0.46875 4.96875,-0.28125 5,-0.203125 c 0.078125,0.1875 0.28125,0.28125 0.625,0.28125 h 0.5 c 0.171875,0 0.296875,0 0.296875,-0.140625 0,-0.046875 -0.03125,-0.09375 -0.046875,-0.109375 -0.078125,-0.09375 -0.171875,-0.28125 -0.25,-0.4375 z m 0,0"
             style="stroke:none;stroke-width:0"
             inkscape:connector-curvature="0" />
        </g>
        <g
           id="g91"
           style="fill:#000000;fill-opacity:1">
          <path
             id="path83"
             transform="translate(155.396,136.259)"
             d="m 2.265625,-4.359375 c 0,-0.109375 -0.09375,-0.265625 -0.28125,-0.265625 -0.1875,0 -0.390625,0.1875 -0.390625,0.390625 0,0.109375 0.078125,0.265625 0.28125,0.265625 0.1875,0 0.390625,-0.203125 0.390625,-0.390625 z M 0.84375,-0.8125 c -0.03125,0.09375 -0.0625,0.171875 -0.0625,0.296875 0,0.328125 0.265625,0.578125 0.65625,0.578125 0.6875,0 1,-0.953125 1,-1.0625 0,-0.09375 -0.09375,-0.09375 -0.109375,-0.09375 -0.09375,0 -0.109375,0.046875 -0.140625,0.125 -0.15625,0.5625 -0.453125,0.84375 -0.734375,0.84375 -0.140625,0 -0.171875,-0.09375 -0.171875,-0.25 0,-0.15625 0.046875,-0.28125 0.109375,-0.4375 C 1.46875,-1 1.546875,-1.1875 1.609375,-1.375 1.671875,-1.546875 1.9375,-2.171875 1.953125,-2.265625 1.984375,-2.328125 2,-2.40625 2,-2.484375 2,-2.8125 1.71875,-3.078125 1.34375,-3.078125 0.640625,-3.078125 0.328125,-2.125 0.328125,-2 c 0,0.078125 0.09375,0.078125 0.125,0.078125 0.09375,0 0.09375,-0.03125 0.125,-0.109375 C 0.75,-2.625 1.0625,-2.875 1.3125,-2.875 c 0.109375,0 0.171875,0.046875 0.171875,0.234375 0,0.171875 -0.03125,0.265625 -0.203125,0.703125 z m 0,0"
             style="stroke:none;stroke-width:0"
             inkscape:connector-curvature="0" />
          <path
             id="path85"
             transform="translate(158.21481,136.259)"
             d="m 0.84375,-0.4375 c -0.015625,0.09375 -0.0625,0.265625 -0.0625,0.28125 0,0.15625 0.125,0.21875 0.234375,0.21875 0.125,0 0.234375,-0.078125 0.28125,-0.140625 0.03125,-0.0625 0.078125,-0.296875 0.125,-0.4375 0.03125,-0.125 0.109375,-0.453125 0.140625,-0.625 0.046875,-0.15625 0.09375,-0.3125 0.125,-0.46875 0.078125,-0.28125 0.09375,-0.34375 0.296875,-0.625 C 2.171875,-2.515625 2.5,-2.875 3.03125,-2.875 c 0.390625,0 0.40625,0.359375 0.40625,0.484375 0,0.421875 -0.296875,1.1875 -0.40625,1.484375 -0.078125,0.203125 -0.109375,0.265625 -0.109375,0.375 0,0.375 0.296875,0.59375 0.65625,0.59375 0.703125,0 1,-0.953125 1,-1.0625 0,-0.09375 -0.078125,-0.09375 -0.109375,-0.09375 -0.09375,0 -0.09375,0.046875 -0.125,0.125 C 4.1875,-0.40625 3.875,-0.125 3.609375,-0.125 c -0.15625,0 -0.1875,-0.09375 -0.1875,-0.25 0,-0.15625 0.046875,-0.25 0.171875,-0.5625 0.078125,-0.21875 0.359375,-0.953125 0.359375,-1.34375 0,-0.671875 -0.53125,-0.796875 -0.90625,-0.796875 -0.578125,0 -0.96875,0.359375 -1.171875,0.640625 -0.046875,-0.484375 -0.453125,-0.640625 -0.75,-0.640625 -0.296875,0 -0.453125,0.21875 -0.546875,0.375 -0.15625,0.265625 -0.25,0.65625 -0.25,0.703125 0,0.078125 0.09375,0.078125 0.125,0.078125 0.09375,0 0.09375,-0.015625 0.140625,-0.203125 0.109375,-0.40625 0.25,-0.75 0.515625,-0.75 0.1875,0 0.234375,0.15625 0.234375,0.34375 0,0.125 -0.0625,0.390625 -0.125,0.578125 -0.046875,0.1875 -0.109375,0.46875 -0.140625,0.625 z m 0,0"
             style="stroke:none;stroke-width:0"
             inkscape:connector-curvature="0" />
          <path
             id="path87"
             transform="translate(163.13971,136.259)"
             d="m 2.265625,-4.359375 c 0,-0.109375 -0.09375,-0.265625 -0.28125,-0.265625 -0.1875,0 -0.390625,0.1875 -0.390625,0.390625 0,0.109375 0.078125,0.265625 0.28125,0.265625 0.1875,0 0.390625,-0.203125 0.390625,-0.390625 z M 0.84375,-0.8125 c -0.03125,0.09375 -0.0625,0.171875 -0.0625,0.296875 0,0.328125 0.265625,0.578125 0.65625,0.578125 0.6875,0 1,-0.953125 1,-1.0625 0,-0.09375 -0.09375,-0.09375 -0.109375,-0.09375 -0.09375,0 -0.109375,0.046875 -0.140625,0.125 -0.15625,0.5625 -0.453125,0.84375 -0.734375,0.84375 -0.140625,0 -0.171875,-0.09375 -0.171875,-0.25 0,-0.15625 0.046875,-0.28125 0.109375,-0.4375 C 1.46875,-1 1.546875,-1.1875 1.609375,-1.375 1.671875,-1.546875 1.9375,-2.171875 1.953125,-2.265625 1.984375,-2.328125 2,-2.40625 2,-2.484375 2,-2.8125 1.71875,-3.078125 1.34375,-3.078125 0.640625,-3.078125 0.328125,-2.125 0.328125,-2 c 0,0.078125 0.09375,0.078125 0.125,0.078125 0.09375,0 0.09375,-0.03125 0.125,-0.109375 C 0.75,-2.625 1.0625,-2.875 1.3125,-2.875 c 0.109375,0 0.171875,0.046875 0.171875,0.234375 0,0.171875 -0.03125,0.265625 -0.203125,0.703125 z m 0,0"
             style="stroke:none;stroke-width:0"
             inkscape:connector-curvature="0" />
          <path
             id="path89"
             transform="translate(165.95852,136.259)"
             d="m 1.71875,-2.75 h 0.703125 c 0.140625,0 0.21875,0 0.21875,-0.15625 C 2.640625,-3 2.5625,-3 2.4375,-3 H 1.78125 l 0.25,-1.03125 C 2.046875,-4.0625 2.0625,-4.109375 2.0625,-4.125 c 0,-0.140625 -0.109375,-0.234375 -0.25,-0.234375 -0.171875,0 -0.265625,0.125 -0.328125,0.296875 C 1.4375,-3.875 1.53125,-4.21875 1.21875,-3 H 0.515625 c -0.125,0 -0.21875,0 -0.21875,0.15625 C 0.296875,-2.75 0.375,-2.75 0.5,-2.75 H 1.15625 L 0.75,-1.109375 C 0.703125,-0.9375 0.640625,-0.6875 0.640625,-0.59375 c 0,0.40625 0.359375,0.65625 0.75,0.65625 0.78125,0 1.21875,-0.96875 1.21875,-1.0625 0,-0.09375 -0.09375,-0.09375 -0.109375,-0.09375 -0.09375,0 -0.09375,0.015625 -0.15625,0.140625 -0.1875,0.4375 -0.546875,0.828125 -0.921875,0.828125 -0.15625,0 -0.25,-0.09375 -0.25,-0.34375 0,-0.0625 0.03125,-0.21875 0.046875,-0.28125 z m 0,0"
             style="stroke:none;stroke-width:0"
             inkscape:connector-curvature="0" />
        </g>
      </g>
    </g>
    <g
       id="g145"
       ns1:jacobian_sqrt="0.352778"
       ns1:alignment="middle center"
       ns1:scale="1.0"
       ns1:preamble="/usr/share/inkscape/extensions/textext/default_packages.tex"
       ns1:text="$\\bm{\\lambda^{*}}$"
       ns1:pdfconverter="pdf2svg"
       ns1:texconverter="pdflatex"
       ns1:version="0.11.0"
       transform="matrix(0.352778,0,0,0.352778,47.189186,42.500897)">
      <g
         id="g143">
        <g
           id="g137"
           style="fill:#000000;fill-opacity:1">
          <path
             id="path135"
             transform="translate(148.712,134.765)"
             d="m 3.578125,-6.359375 c -0.125,-0.28125 -0.25,-0.5625 -1.46875,-0.5625 -0.234375,0 -0.40625,0 -0.40625,0.1875 0,0.15625 0.140625,0.171875 0.15625,0.171875 0.15625,0.015625 0.265625,0.03125 0.421875,0.265625 0.125,0.203125 1.15625,2.5625 1.390625,3.09375 l -2.890625,2.3125 c -0.109375,0.09375 -0.3125,0.265625 -0.3125,0.53125 0,0.28125 0.234375,0.484375 0.484375,0.484375 0.265625,0 0.46875,-0.21875 0.75,-0.53125 C 1.71875,-0.421875 2.21875,-0.9375 2.25,-0.984375 c 0.375,-0.375 1.265625,-1.34375 1.640625,-1.71875 l 0.953125,2.15625 C 4.875,-0.46875 4.96875,-0.28125 5,-0.203125 c 0.078125,0.1875 0.28125,0.28125 0.625,0.28125 h 0.5 c 0.171875,0 0.296875,0 0.296875,-0.140625 0,-0.046875 -0.03125,-0.09375 -0.046875,-0.109375 -0.078125,-0.09375 -0.171875,-0.28125 -0.25,-0.4375 z m 0,0"
             style="stroke:none;stroke-width:0"
             inkscape:connector-curvature="0" />
        </g>
        <g
           id="g141"
           style="fill:#000000;fill-opacity:1">
          <path
             id="path139"
             transform="translate(155.396,131.149)"
             d="M 1.171875,-2.640625 C 1.09375,-2.703125 1.0625,-2.71875 0.96875,-2.71875 c -0.203125,0 -0.328125,0.203125 -0.328125,0.359375 0,0.234375 0.15625,0.28125 0.25,0.3125 l 0.96875,0.3125 -0.890625,0.265625 c -0.1875,0.0625 -0.328125,0.109375 -0.328125,0.34375 0,0.15625 0.125,0.359375 0.328125,0.359375 0.078125,0 0.09375,0 0.296875,-0.140625 l 0.84375,-0.5625 c -0.03125,0.125 -0.171875,0.921875 -0.171875,0.984375 0,0.171875 0.171875,0.296875 0.34375,0.296875 0.15625,0 0.34375,-0.109375 0.34375,-0.3125 0,-0.046875 -0.15625,-0.84375 -0.171875,-0.96875 l 0.859375,0.5625 c 0.171875,0.140625 0.1875,0.140625 0.265625,0.140625 0.21875,0 0.34375,-0.203125 0.34375,-0.359375 0,-0.234375 -0.15625,-0.28125 -0.25,-0.3125 l -0.96875,-0.296875 0.875,-0.28125 c 0.203125,-0.0625 0.34375,-0.109375 0.34375,-0.34375 0,-0.15625 -0.125,-0.359375 -0.34375,-0.359375 -0.078125,0 -0.09375,0 -0.28125,0.140625 l -0.84375,0.5625 C 2.46875,-2.140625 2.625,-2.9375 2.625,-2.984375 c 0,-0.203125 -0.1875,-0.3125 -0.34375,-0.3125 -0.171875,0 -0.34375,0.125 -0.34375,0.296875 0,0.03125 0,0.078125 0.078125,0.5 l 0.09375,0.484375 z m 0,0"
             style="stroke:none;stroke-width:0"
             inkscape:connector-curvature="0" />
        </g>
      </g>
    </g>
    <path
       style="fill:none;stroke:#8d8d8d;stroke-width:0.26499999;stroke-linecap:butt;stroke-linejoin:miter;stroke-opacity:1;stroke-miterlimit:4;stroke-dasharray:0.26499999, 0.52999996999999999;stroke-dashoffset:0"
       d="m 54.805799,107.84723 c -0.400027,-0.87897 -0.557817,-1.86674 -0.451533,-2.82659 0.106283,-0.95986 0.476348,-1.88917 1.058981,-2.65934 0.582633,-0.77017 1.376237,-1.37907 2.270985,-1.74245 0.894748,-0.36338 1.888186,-0.48024 2.842832,-0.3344 1.531399,0.23395 2.879205,1.10797 4.159514,1.98016 1.28031,0.8722 2.591337,1.78384 4.105411,2.1117 1.60322,0.34717 3.299218,-0.005 4.779427,-0.71179 1.480209,-0.70698 2.772244,-1.75059 3.997779,-2.84096 1.730764,-1.539875 3.360203,-3.19316 4.882006,-4.939836 1.99402,-2.288671 3.898956,-4.815228 6.628431,-6.143422 2.450571,-1.192476 5.424598,-1.253171 7.921781,-0.161671"
       id="path159"
       inkscape:connector-curvature="0"
       inkscape:path-effect="#path-effect161;#path-effect163"
       inkscape:original-d="m 54.805799,107.84723 c 0.920374,-2.22932 2.75237,-6.19998 4.850069,-7.59844 0.263364,-0.17558 0.845585,0.14305 1.131684,0 2.980518,-1.49026 4.770691,2.54701 7.113436,3.71839 1.101313,0.55065 2.60095,1.13168 3.880057,1.13168 0.313105,0 1.019368,0.13699 1.293352,0 1.049522,-0.52476 2.867438,-1.59957 3.556719,-2.74837 0.460981,-0.7683 0.614913,-1.26159 1.455021,-2.1017 0.994254,-0.994254 3.065999,-0.880613 3.880056,-2.101699 0.408046,-0.612066 0.07703,-1.610609 0.485008,-2.263367 1.458632,-2.333811 2.472312,-3.960017 4.850072,-5.658414 0.602461,-0.430332 1.154229,-0.328975 1.778359,-0.485008 0.368255,-0.09206 0.738595,-0.415258 0.970013,-0.646676 0.370237,-0.370236 1.455404,-0.242694 1.940028,-0.485007 1.019633,-0.509815 3.302847,0.970012 5.01174,0.970012" />
    <g
       id="g5034"
       ns1:jacobian_sqrt="0.352778"
       inkscapeversion="0.92.4"
       ns1:alignment="middle center"
       ns1:scale="1.0"
       ns1:preamble="/usr/share/inkscape/extensions/textext/default_packages.tex"
       ns1:text="$q(\\bm{c};\\bm{\\lambda})$"
       ns1:pdfconverter="pdf2svg"
       ns1:texconverter="pdflatex"
       ns1:version="0.11.0"
       transform="matrix(0.352778,0.000000,0.000000,0.352778,2.505007,41.636308)">
      <g
         id="surface1">
        <g
           id="g5011"
           style="fill:rgb(0%,0%,0%);fill-opacity:1;">
          <path
             id="path5009"
             transform="translate(148.712,134.765)"
             d="M 4.5 -4.296875 C 4.5 -4.34375 4.46875 -4.390625 4.40625 -4.390625 C 4.296875 -4.390625 3.890625 -4 3.734375 -3.703125 C 3.515625 -4.25 3.125 -4.40625 2.796875 -4.40625 C 1.625 -4.40625 0.40625 -2.9375 0.40625 -1.484375 C 0.40625 -0.515625 0.984375 0.109375 1.71875 0.109375 C 2.140625 0.109375 2.53125 -0.125 2.890625 -0.484375 C 2.796875 -0.140625 2.46875 1.203125 2.4375 1.296875 C 2.359375 1.578125 2.28125 1.609375 1.71875 1.625 C 1.59375 1.625 1.5 1.625 1.5 1.828125 C 1.5 1.828125 1.5 1.9375 1.625 1.9375 C 1.9375 1.9375 2.296875 1.90625 2.625 1.90625 C 2.953125 1.90625 3.3125 1.9375 3.65625 1.9375 C 3.703125 1.9375 3.828125 1.9375 3.828125 1.734375 C 3.828125 1.625 3.734375 1.625 3.5625 1.625 C 3.09375 1.625 3.09375 1.5625 3.09375 1.46875 C 3.09375 1.390625 3.109375 1.328125 3.125 1.25 Z M 1.75 -0.109375 C 1.140625 -0.109375 1.109375 -0.875 1.109375 -1.046875 C 1.109375 -1.53125 1.390625 -2.609375 1.5625 -3.03125 C 1.875 -3.765625 2.390625 -4.1875 2.796875 -4.1875 C 3.453125 -4.1875 3.59375 -3.375 3.59375 -3.3125 C 3.59375 -3.25 3.046875 -1.0625 3.015625 -1.03125 C 2.859375 -0.75 2.296875 -0.109375 1.75 -0.109375 Z M 1.75 -0.109375 "
             style="stroke:none;stroke-width:0" />
        </g>
        <g
           id="g5015"
           style="fill:rgb(0%,0%,0%);fill-opacity:1;">
          <path
             id="path5013"
             transform="translate(153.517,134.765)"
             d="M 3.296875 2.390625 C 3.296875 2.359375 3.296875 2.34375 3.125 2.171875 C 1.890625 0.921875 1.5625 -0.96875 1.5625 -2.5 C 1.5625 -4.234375 1.9375 -5.96875 3.171875 -7.203125 C 3.296875 -7.328125 3.296875 -7.34375 3.296875 -7.375 C 3.296875 -7.453125 3.265625 -7.484375 3.203125 -7.484375 C 3.09375 -7.484375 2.203125 -6.796875 1.609375 -5.53125 C 1.109375 -4.4375 0.984375 -3.328125 0.984375 -2.5 C 0.984375 -1.71875 1.09375 -0.515625 1.640625 0.625 C 2.25 1.84375 3.09375 2.5 3.203125 2.5 C 3.265625 2.5 3.296875 2.46875 3.296875 2.390625 Z M 3.296875 2.390625 "
             style="stroke:none;stroke-width:0" />
        </g>
        <g
           id="g5019"
           style="fill:rgb(0%,0%,0%);fill-opacity:1;">
          <path
             id="path5017"
             transform="translate(157.392,134.765)"
             d="M 4.296875 -3.953125 C 3.765625 -3.78125 3.765625 -3.296875 3.765625 -3.265625 C 3.765625 -3.125 3.84375 -2.8125 4.25 -2.8125 C 4.671875 -2.8125 4.96875 -3.171875 4.96875 -3.578125 C 4.96875 -4.109375 4.453125 -4.5 3.578125 -4.5 C 1.578125 -4.5 0.453125 -2.953125 0.453125 -1.640625 C 0.453125 -0.75 1.015625 0.078125 2.578125 0.078125 C 2.828125 0.078125 3.515625 0.0625 4.109375 -0.15625 C 4.6875 -0.390625 5.09375 -0.796875 5.09375 -0.921875 C 5.09375 -1 4.9375 -1.171875 4.84375 -1.171875 C 4.78125 -1.171875 4.765625 -1.140625 4.6875 -1.0625 C 4.15625 -0.5 3.375 -0.28125 2.59375 -0.28125 C 1.9375 -0.28125 1.609375 -0.609375 1.609375 -1.203125 C 1.609375 -1.5625 1.859375 -2.765625 2.15625 -3.296875 C 2.5625 -3.96875 3.171875 -4.140625 3.59375 -4.140625 C 3.71875 -4.140625 4.03125 -4.140625 4.296875 -3.953125 Z M 4.296875 -3.953125 "
             style="stroke:none;stroke-width:0" />
        </g>
        <g
           id="g5023"
           style="fill:rgb(0%,0%,0%);fill-opacity:1;">
          <path
             id="path5021"
             transform="translate(162.507,134.765)"
             d="M 1.90625 -3.765625 C 1.90625 -4.0625 1.671875 -4.296875 1.390625 -4.296875 C 1.09375 -4.296875 0.859375 -4.0625 0.859375 -3.765625 C 0.859375 -3.484375 1.09375 -3.234375 1.390625 -3.234375 C 1.671875 -3.234375 1.90625 -3.484375 1.90625 -3.765625 Z M 1.71875 -0.109375 C 1.71875 0.171875 1.71875 0.953125 1.09375 1.6875 C 1.015625 1.765625 1.015625 1.78125 1.015625 1.8125 C 1.015625 1.890625 1.0625 1.921875 1.109375 1.921875 C 1.21875 1.921875 1.9375 1.125 1.9375 -0.03125 C 1.9375 -0.3125 1.921875 -1.0625 1.390625 -1.0625 C 1.03125 -1.0625 0.859375 -0.78125 0.859375 -0.53125 C 0.859375 -0.265625 1.03125 0 1.390625 0 C 1.4375 0 1.453125 0 1.46875 -0.015625 C 1.53125 -0.015625 1.640625 -0.046875 1.71875 -0.109375 Z M 1.71875 -0.109375 "
             style="stroke:none;stroke-width:0" />
        </g>
        <g
           id="g5027"
           style="fill:rgb(0%,0%,0%);fill-opacity:1;">
          <path
             id="path5025"
             transform="translate(166.934,134.765)"
             d="M 3.578125 -6.359375 C 3.453125 -6.640625 3.328125 -6.921875 2.109375 -6.921875 C 1.875 -6.921875 1.703125 -6.921875 1.703125 -6.734375 C 1.703125 -6.578125 1.84375 -6.5625 1.859375 -6.5625 C 2.015625 -6.546875 2.125 -6.53125 2.28125 -6.296875 C 2.40625 -6.09375 3.4375 -3.734375 3.671875 -3.203125 L 0.78125 -0.890625 C 0.671875 -0.796875 0.46875 -0.625 0.46875 -0.359375 C 0.46875 -0.078125 0.703125 0.125 0.953125 0.125 C 1.21875 0.125 1.421875 -0.09375 1.703125 -0.40625 C 1.71875 -0.421875 2.21875 -0.9375 2.25 -0.984375 C 2.625 -1.359375 3.515625 -2.328125 3.890625 -2.703125 L 4.84375 -0.546875 C 4.875 -0.46875 4.96875 -0.28125 5 -0.203125 C 5.078125 -0.015625 5.28125 0.078125 5.625 0.078125 L 6.125 0.078125 C 6.296875 0.078125 6.421875 0.078125 6.421875 -0.0625 C 6.421875 -0.109375 6.390625 -0.15625 6.375 -0.171875 C 6.296875 -0.265625 6.203125 -0.453125 6.125 -0.609375 Z M 3.578125 -6.359375 "
             style="stroke:none;stroke-width:0" />
        </g>
        <g
           id="g5031"
           style="fill:rgb(0%,0%,0%);fill-opacity:1;">
          <path
             id="path5029"
             transform="translate(173.618,134.765)"
             d="M 2.875 -2.5 C 2.875 -3.265625 2.765625 -4.46875 2.21875 -5.609375 C 1.625 -6.828125 0.765625 -7.484375 0.671875 -7.484375 C 0.609375 -7.484375 0.5625 -7.4375 0.5625 -7.375 C 0.5625 -7.34375 0.5625 -7.328125 0.75 -7.140625 C 1.734375 -6.15625 2.296875 -4.578125 2.296875 -2.5 C 2.296875 -0.78125 1.9375 0.96875 0.703125 2.21875 C 0.5625 2.34375 0.5625 2.359375 0.5625 2.390625 C 0.5625 2.453125 0.609375 2.5 0.671875 2.5 C 0.765625 2.5 1.671875 1.8125 2.25 0.546875 C 2.765625 -0.546875 2.875 -1.65625 2.875 -2.5 Z M 2.875 -2.5 "
             style="stroke:none;stroke-width:0" />
        </g>
      </g>
    </g>
    <g
       id="g5115"
       ns1:jacobian_sqrt="0.352778"
       inkscapeversion="0.92.4"
       ns1:alignment="middle center"
       ns1:scale="1.0"
       ns1:preamble="/usr/share/inkscape/extensions/textext/default_packages.tex"
       ns1:text="$p(\\bm{c}|\\bm{x})$"
       ns1:pdfconverter="pdf2svg"
       ns1:texconverter="pdflatex"
       ns1:version="0.11.0"
       transform="matrix(0.352778,0.000000,0.000000,0.352778,59.124806,32.481050)">
      <g
         id="g5113">
        <g
           id="g5091"
           style="fill:rgb(0%,0%,0%);fill-opacity:1;">
          <path
             id="path5089"
             transform="translate(148.712,134.765)"
             d="M 0.453125 1.21875 C 0.375 1.5625 0.34375 1.625 -0.09375 1.625 C -0.203125 1.625 -0.3125 1.625 -0.3125 1.8125 C -0.3125 1.890625 -0.265625 1.9375 -0.1875 1.9375 C 0.078125 1.9375 0.375 1.90625 0.640625 1.90625 C 0.984375 1.90625 1.3125 1.9375 1.640625 1.9375 C 1.6875 1.9375 1.8125 1.9375 1.8125 1.734375 C 1.8125 1.625 1.71875 1.625 1.578125 1.625 C 1.078125 1.625 1.078125 1.5625 1.078125 1.46875 C 1.078125 1.34375 1.5 -0.28125 1.5625 -0.53125 C 1.6875 -0.234375 1.96875 0.109375 2.484375 0.109375 C 3.640625 0.109375 4.890625 -1.34375 4.890625 -2.8125 C 4.890625 -3.75 4.3125 -4.40625 3.5625 -4.40625 C 3.0625 -4.40625 2.578125 -4.046875 2.25 -3.65625 C 2.15625 -4.203125 1.71875 -4.40625 1.359375 -4.40625 C 0.890625 -4.40625 0.703125 -4.015625 0.625 -3.84375 C 0.4375 -3.5 0.3125 -2.90625 0.3125 -2.875 C 0.3125 -2.765625 0.40625 -2.765625 0.421875 -2.765625 C 0.53125 -2.765625 0.53125 -2.78125 0.59375 -3 C 0.765625 -3.703125 0.96875 -4.1875 1.328125 -4.1875 C 1.5 -4.1875 1.640625 -4.109375 1.640625 -3.734375 C 1.640625 -3.5 1.609375 -3.390625 1.5625 -3.21875 Z M 2.203125 -3.109375 C 2.265625 -3.375 2.546875 -3.65625 2.71875 -3.8125 C 3.078125 -4.109375 3.359375 -4.1875 3.53125 -4.1875 C 3.921875 -4.1875 4.171875 -3.84375 4.171875 -3.25 C 4.171875 -2.65625 3.84375 -1.515625 3.65625 -1.140625 C 3.3125 -0.4375 2.84375 -0.109375 2.46875 -0.109375 C 1.8125 -0.109375 1.6875 -0.9375 1.6875 -1 C 1.6875 -1.015625 1.6875 -1.03125 1.71875 -1.15625 Z M 2.203125 -3.109375 "
             style="stroke:none;stroke-width:0" />
        </g>
        <g
           id="g5095"
           style="fill:rgb(0%,0%,0%);fill-opacity:1;">
          <path
             id="path5093"
             transform="translate(153.725,134.765)"
             d="M 3.296875 2.390625 C 3.296875 2.359375 3.296875 2.34375 3.125 2.171875 C 1.890625 0.921875 1.5625 -0.96875 1.5625 -2.5 C 1.5625 -4.234375 1.9375 -5.96875 3.171875 -7.203125 C 3.296875 -7.328125 3.296875 -7.34375 3.296875 -7.375 C 3.296875 -7.453125 3.265625 -7.484375 3.203125 -7.484375 C 3.09375 -7.484375 2.203125 -6.796875 1.609375 -5.53125 C 1.109375 -4.4375 0.984375 -3.328125 0.984375 -2.5 C 0.984375 -1.71875 1.09375 -0.515625 1.640625 0.625 C 2.25 1.84375 3.09375 2.5 3.203125 2.5 C 3.265625 2.5 3.296875 2.46875 3.296875 2.390625 Z M 3.296875 2.390625 "
             style="stroke:none;stroke-width:0" />
        </g>
        <g
           id="g5099"
           style="fill:rgb(0%,0%,0%);fill-opacity:1;">
          <path
             id="path5097"
             transform="translate(157.599,134.765)"
             d="M 4.296875 -3.953125 C 3.765625 -3.78125 3.765625 -3.296875 3.765625 -3.265625 C 3.765625 -3.125 3.84375 -2.8125 4.25 -2.8125 C 4.671875 -2.8125 4.96875 -3.171875 4.96875 -3.578125 C 4.96875 -4.109375 4.453125 -4.5 3.578125 -4.5 C 1.578125 -4.5 0.453125 -2.953125 0.453125 -1.640625 C 0.453125 -0.75 1.015625 0.078125 2.578125 0.078125 C 2.828125 0.078125 3.515625 0.0625 4.109375 -0.15625 C 4.6875 -0.390625 5.09375 -0.796875 5.09375 -0.921875 C 5.09375 -1 4.9375 -1.171875 4.84375 -1.171875 C 4.78125 -1.171875 4.765625 -1.140625 4.6875 -1.0625 C 4.15625 -0.5 3.375 -0.28125 2.59375 -0.28125 C 1.9375 -0.28125 1.609375 -0.609375 1.609375 -1.203125 C 1.609375 -1.5625 1.859375 -2.765625 2.15625 -3.296875 C 2.5625 -3.96875 3.171875 -4.140625 3.59375 -4.140625 C 3.71875 -4.140625 4.03125 -4.140625 4.296875 -3.953125 Z M 4.296875 -3.953125 "
             style="stroke:none;stroke-width:0" />
        </g>
        <g
           id="g5103"
           style="fill:rgb(0%,0%,0%);fill-opacity:1;">
          <path
             id="path5101"
             transform="translate(162.714,134.765)"
             d="M 1.578125 -7.125 C 1.578125 -7.296875 1.578125 -7.484375 1.390625 -7.484375 C 1.1875 -7.484375 1.1875 -7.296875 1.1875 -7.125 L 1.1875 2.140625 C 1.1875 2.3125 1.1875 2.5 1.390625 2.5 C 1.578125 2.5 1.578125 2.3125 1.578125 2.140625 Z M 1.578125 -7.125 "
             style="stroke:none;stroke-width:0" />
        </g>
        <g
           id="g5107"
           style="fill:rgb(0%,0%,0%);fill-opacity:1;">
          <path
             id="path5105"
             transform="translate(165.482,134.765)"
             d="M 5.34375 -4 C 4.984375 -3.890625 4.8125 -3.5625 4.8125 -3.3125 C 4.8125 -3.09375 4.96875 -2.84375 5.296875 -2.84375 C 5.65625 -2.84375 6.015625 -3.140625 6.015625 -3.625 C 6.015625 -4.15625 5.5 -4.5 4.890625 -4.5 C 4.3125 -4.5 3.953125 -4.078125 3.8125 -3.890625 C 3.5625 -4.3125 3.015625 -4.5 2.4375 -4.5 C 1.1875 -4.5 0.515625 -3.28125 0.515625 -2.953125 C 0.515625 -2.8125 0.65625 -2.8125 0.75 -2.8125 C 0.875 -2.8125 0.9375 -2.8125 0.984375 -2.9375 C 1.265625 -3.84375 1.984375 -4.140625 2.390625 -4.140625 C 2.765625 -4.140625 2.953125 -3.96875 2.953125 -3.65625 C 2.953125 -3.453125 2.8125 -2.90625 2.71875 -2.546875 L 2.375 -1.1875 C 2.234375 -0.578125 1.875 -0.28125 1.53125 -0.28125 C 1.484375 -0.28125 1.25 -0.28125 1.0625 -0.421875 C 1.421875 -0.53125 1.59375 -0.875 1.59375 -1.109375 C 1.59375 -1.328125 1.421875 -1.578125 1.09375 -1.578125 C 0.75 -1.578125 0.375 -1.28125 0.375 -0.796875 C 0.375 -0.265625 0.90625 0.078125 1.515625 0.078125 C 2.078125 0.078125 2.453125 -0.34375 2.578125 -0.53125 C 2.828125 -0.109375 3.390625 0.078125 3.953125 0.078125 C 5.21875 0.078125 5.890625 -1.140625 5.890625 -1.46875 C 5.890625 -1.609375 5.734375 -1.609375 5.65625 -1.609375 C 5.53125 -1.609375 5.46875 -1.609375 5.421875 -1.484375 C 5.140625 -0.578125 4.421875 -0.28125 4 -0.28125 C 3.625 -0.28125 3.453125 -0.453125 3.453125 -0.78125 C 3.453125 -0.984375 3.578125 -1.515625 3.671875 -1.890625 C 3.734375 -2.140625 3.96875 -3.078125 4.015625 -3.234375 C 4.171875 -3.84375 4.515625 -4.140625 4.859375 -4.140625 C 4.921875 -4.140625 5.140625 -4.140625 5.34375 -4 Z M 5.34375 -4 "
             style="stroke:none;stroke-width:0" />
        </g>
        <g
           id="g5111"
           style="fill:rgb(0%,0%,0%);fill-opacity:1;">
          <path
             id="path5109"
             transform="translate(172.047,134.765)"
             d="M 2.875 -2.5 C 2.875 -3.265625 2.765625 -4.46875 2.21875 -5.609375 C 1.625 -6.828125 0.765625 -7.484375 0.671875 -7.484375 C 0.609375 -7.484375 0.5625 -7.4375 0.5625 -7.375 C 0.5625 -7.34375 0.5625 -7.328125 0.75 -7.140625 C 1.734375 -6.15625 2.296875 -4.578125 2.296875 -2.5 C 2.296875 -0.78125 1.9375 0.96875 0.703125 2.21875 C 0.5625 2.34375 0.5625 2.359375 0.5625 2.390625 C 0.5625 2.453125 0.609375 2.5 0.671875 2.5 C 0.765625 2.5 1.671875 1.8125 2.25 0.546875 C 2.765625 -0.546875 2.875 -1.65625 2.875 -2.5 Z M 2.875 -2.5 "
             style="stroke:none;stroke-width:0" />
        </g>
      </g>
    </g>
  </g>
</svg>
